<svg xmlns="http://www.w3.org/2000/svg">
<symbol id="menu-closed" width="20" height="20" viewBox="0 0 20 20" xmlns="http://www.w3.org/2000/svg">
<path d="M.293 18.291a1 1 0 101.414 1.414L10 11.413l8.292 8.292a1 1 0 101.414-1.414l-8.292-8.292 8.292-8.292A1 1 0 1018.291.293L9.999 8.585 1.707.293A1 1 0 10.293 1.707L8.585 10 .293 18.291z"/>
</symbol>
<symbol id="menu-opened" xmlns="http://www.w3.org/2000/svg" viewBox="0 0 30 30" width="30px" height="30px">
<path stroke-linecap="round" stroke-linejoin="round" stroke-miterlimit="10" stroke-width="2" d="M3 15L27 15M3 8L27 8M3 22L27 22"/>
</symbol>
<symbol id="github" xmlns="http://www.w3.org/2000/svg" viewBox="0 0 30 30" width="30px" height="30px">
<path d="M15,3C8.373,3,3,8.373,3,15c0,5.623,3.872,10.328,9.092,11.63C12.036,26.468,12,26.28,12,26.047v-2.051c-0.487,0-1.303,0-1.508,0c-0.821,0-1.551-0.353-1.905-1.009c-0.393-0.729-0.461-1.844-1.435-2.526c-0.289-0.227-0.069-0.486,0.264-0.451c0.615,0.174,1.125,0.596,1.605,1.222c0.478,0.627,0.703,0.769,1.596,0.769c0.433,0,1.081-0.025,1.691-0.121c0.328-0.833,0.895-1.6,1.588-1.962c-3.996-0.411-5.903-2.399-5.903-5.098c0-1.162,0.495-2.286,1.336-3.233C9.053,10.647,8.706,8.73,9.435,8c1.798,0,2.885,1.166,3.146,1.481C13.477,9.174,14.461,9,15.495,9c1.036,0,2.024,0.174,2.922,0.483C18.675,9.17,19.763,8,21.565,8c0.732,0.731,0.381,2.656,0.102,3.594c0.836,0.945,1.328,2.066,1.328,3.226c0,2.697-1.904,4.684-5.894,5.097C18.199,20.49,19,22.1,19,23.313v2.734c0,0.104-0.023,0.179-0.035,0.268C23.641,24.676,27,20.236,27,15C27,8.373,21.627,3,15,3z"/>
</symbol>
<symbol id="leetcode" viewBox="0 0 30 30" width="30px" height="30px" xmlns="http://www.w3.org/2000/svg">
<path d="M16.102 17.93l-2.697 2.607c-.466.467-1.111.662-1.823.662s-1.357-.195-1.824-.662l-4.332-4.363c-.467-.467-.702-1.15-.702-1.863s.235-1.357.702-1.824l4.319-4.38c.467-.467 1.125-.645 1.837-.645s1.357.195 1.823.662l2.697 2.606c.514.515 1.365.497 1.9-.038.535-.536.553-1.387.039-1.901l-2.609-2.636a5.055 5.055 0 0 0-2.445-1.337l2.467-2.503c.516-.514.498-1.366-.037-1.901-.535-.535-1.387-.552-1.902-.038l-10.1 10.101c-.981.982-1.494 2.337-1.494 3.835 0 1.498.513 2.895 1.494 3.875l4.347 4.361c.981.979 2.337 1.452 3.834 1.452s2.853-.512 3.835-1.494l2.609-2.637c.514-.514.496-1.365-.039-1.9s-1.386-.553-1.899-.039zM20.811 13.01H10.666c-.702 0-1.27.604-1.27 1.346s.568 1.346 1.27 1.346h10.145c.701 0 1.27-.604 1.27-1.346s-.569-1.346-1.27-1.346z"/>
</symbol>
<symbol height="30px" width="30px" id="email" xmlns="http://www.w3.org/2000/svg" viewBox="0 0 305.616 305.616">
	<path d="M24.818,260.333c-24.459,0-0.397-24.818-0.397-24.818l62.359-68.532
		c6.065-6.663,17.769-16.78,24.612-11.199c6.842,5.58,15.98,16.888,22.344,23.268l12.896,12.907c6.913,6.119,12.232,0,12.232,0
		l13.195-12.999c6.418-6.326,15.61-17.362,22.463-22.496c6.853-5.134,18.509,4.629,24.557,11.308l61.994,68.5
		c24.47,24.062,0.397,24.062,0.397,24.062H24.818z M35.403,203.951c-6.065,6.668-14.925,18.264-20.913,24.998
		C7.729,236.548,0,242.318,0,229.009L0.294,95.311c0.022-9.013-0.228-26.2,5.929-23.116c2.29,1.148,5.423,3.535,9.676,7.794
		l50.464,41.288c6.973,5.706,16.801,12.689,20.016,17.34c2.029,2.932,2.959,6.342,0.022,9.29L35.403,203.951z M171.423,156.452
		c-6.967,5.716-14.539,13.826-18.406,13.837c-3.867,0.005-11.58-7.919-18.58-13.598L24.634,67.621
		c-7-5.673-19.058-17.1-13.065-20.163c4.329-2.214,11.895-2.176,11.895-2.176h258.029c23.23,0,11.417,11.471,11.417,11.471
		L171.423,156.452z M291.11,228.949c-5.999-6.728-14.865-18.33-20.924-24.998l-50.969-56.05c-2.953-2.948-2.029-6.358,0-9.29
		c3.214-4.65,13.048-11.629,20.027-17.334l37.845-30.959c6.973-5.706,16.143-15.039,22.295-18.123
		c6.152-3.084,5.885,14.109,5.907,23.116l0.326,133.698C305.621,242.318,297.881,236.548,291.11,228.949z"/>
</symbol>
<symbol id="arrow" viewBox="0 0 128 128" width="30px" height="30px" xmlns="http://www.w3.org/2000/svg">
<path d="M64,0a64,64,0,1,0,64,64A64.07,64.07,0,0,0,64,0Zm0,122a58,58,0,1,1,58-58A58.07,58.07,0,0,1,64,122Z"/>
<path d="M58.12,35.88a3,3,0,0,0-4.24,4.24L77.76,64,53.88,87.88a3,3,0,1,0,4.24,4.24l26-26a3,3,0,0,0,0-4.24Z"/>
</symbol>
</svg>
